Coordinates
version=1
nRows=34
nColumns=38
inDegrees=no

Units are S.I. units (second, meters, Newtons, ...)
If the header above contains a line with 'inDegrees', this indicates whether rotational values are in degrees (yes) or radians (no).

endheader
time	pelvis_tilt	pelvis_list	pelvis_rotation	pelvis_tx	pelvis_ty	pelvis_tz	hip_flexion_r	hip_adduction_r	hip_rotation_r	knee_angle_r	ankle_angle_r	subtalar_angle_r	mtp_angle_r	hip_flexion_l	hip_adduction_l	hip_rotation_l	knee_angle_l	ankle_angle_l	subtalar_angle_l	mtp_angle_l	lumbar_extension	lumbar_bending	lumbar_rotation	arm_flex_r	arm_add_r	arm_rot_r	elbow_flex_r	pro_sup_r	wrist_flex_r	wrist_dev_r	arm_flex_l	arm_add_l	arm_rot_l	elbow_flex_l	pro_sup_l	wrist_flex_l	wrist_dev_l
6.71	3.01435	1.50145	-1.44808	0.635451	1.91387	1.04783	0.0692431	-0.0416386	-0.141228	0.516207	-0.161328	0	0	-0.17081	-0.0486728	-0.192996	0.0431953	-0.452123	0	0	-0.216997	0.0387732	-0.0433771	0.949749	-0.146894	0.927758	0.811379	1.5708	0	0	0.850874	-0.28974	0.846894	0.868451	1.5708	0	0
6.72	3.00593	1.5017	-1.43999	0.636021	1.91548	1.04777	0.0664002	-0.0405797	-0.142452	0.513681	-0.160426	0	0	-0.173356	-0.049614	-0.193392	0.0410814	-0.452353	0	0	-0.215633	0.0405788	-0.0436363	0.946608	-0.147235	0.926469	0.816322	1.5708	0	0	0.845456	-0.292886	0.842478	0.874477	1.5708	0	0
6.73	2.99568	1.50199	-1.43006	0.636526	1.91707	1.0477	0.063468	-0.03936	-0.143484	0.510791	-0.159587	0	0	-0.175766	-0.0505935	-0.193657	0.0390538	-0.452285	0	0	-0.214293	0.042606	-0.044297	0.943866	-0.147337	0.925809	0.820996	1.5708	0	0	0.839211	-0.29634	0.836362	0.881434	1.5708	0	0
6.74	2.98354	1.50211	-1.41806	0.637012	1.9186	1.04763	0.0601667	-0.0378891	-0.144455	0.50743	-0.158698	0	0	-0.178263	-0.051713	-0.193809	0.03709	-0.451968	0	0	-0.212879	0.0444985	-0.0450437	0.941431	-0.147455	0.926053	0.824988	1.5708	0	0	0.832759	-0.299526	0.829775	0.888153	1.5708	0	0
6.75	2.96969	1.50241	-1.40419	0.63749	1.92012	1.04753	0.056915	-0.0362576	-0.145594	0.503754	-0.157874	0	0	-0.180457	-0.0529405	-0.194228	0.0351127	-0.45177	0	0	-0.211035	0.0464261	-0.0459258	0.939063	-0.147685	0.926985	0.828711	1.5708	0	0	0.826271	-0.302771	0.823756	0.89475	1.5708	0	0
6.76	2.95494	1.50272	-1.38955	0.637926	1.92157	1.04741	0.0537261	-0.0345813	-0.146453	0.49991	-0.157148	0	0	-0.18259	-0.0541113	-0.194856	0.0331083	-0.451687	0	0	-0.20946	0.0483333	-0.046893	0.936787	-0.147954	0.927628	0.832867	1.5708	0	0	0.819464	-0.306424	0.817161	0.90232	1.5708	0	0
6.77	2.93656	1.50243	-1.37147	0.638316	1.92294	1.04733	0.0496307	-0.0324469	-0.146939	0.494595	-0.156503	0	0	-0.185711	-0.055482	-0.195434	0.0300224	-0.451869	0	0	-0.209688	0.0518533	-0.0514717	0.937869	-0.144678	0.933005	0.835049	1.5708	0	0	0.80605	-0.313453	0.796645	0.91746	1.5708	0	0
6.78	2.9215	1.50264	-1.35685	0.638733	1.92426	1.04722	0.0469106	-0.0308712	-0.14757	0.491231	-0.155743	0	0	-0.187806	-0.0566331	-0.196823	0.0279602	-0.451775	0	0	-0.208984	0.0533737	-0.0527709	0.935588	-0.144795	0.932443	0.840384	1.5708	0	0	0.79825	-0.318043	0.787851	0.927491	1.5708	0	0
6.79	2.90643	1.50259	-1.34252	0.639098	1.92547	1.04717	0.0445894	-0.0296528	-0.148119	0.489205	-0.155421	0	0	-0.190189	-0.0576666	-0.198467	0.025733	-0.452109	0	0	-0.209004	0.0549487	-0.0540509	0.933483	-0.14479	0.931439	0.846022	1.5708	0	0	0.790464	-0.322798	0.778558	0.938029	1.5708	0	0
6.8	2.8947	1.50253	-1.33146	0.639453	1.92665	1.04711	0.0422544	-0.0286417	-0.149279	0.486991	-0.155209	0	0	-0.192019	-0.0586114	-0.200944	0.0247347	-0.452296	0	0	-0.208938	0.0563185	-0.0554522	0.931518	-0.144844	0.931056	0.851517	1.5708	0	0	0.783262	-0.32758	0.770569	0.947908	1.5708	0	0
6.81	2.88643	1.50283	-1.32378	0.639861	1.9278	1.04702	0.0403561	-0.0278328	-0.150738	0.485043	-0.154805	0	0	-0.193367	-0.0593388	-0.203165	0.0239219	-0.452068	0	0	-0.207964	0.0559324	-0.0541562	0.926871	-0.147696	0.926567	0.859179	1.5708	0	0	0.781251	-0.330461	0.772902	0.953087	1.5708	0	0
6.82	2.88131	1.50238	-1.31925	0.640236	1.92887	1.04698	0.0375794	-0.0271169	-0.152312	0.482795	-0.15458	0	0	-0.195507	-0.0599326	-0.205047	0.0229144	-0.452025	0	0	-0.207853	0.0561802	-0.0548828	0.924506	-0.148061	0.925716	0.863877	1.5708	0	0	0.775886	-0.334126	0.767471	0.960419	1.5708	0	0
6.83	2.87843	1.50202	-1.31701	0.640577	1.92989	1.04693	0.0349165	-0.0266414	-0.153867	0.480508	-0.154096	0	0	-0.197434	-0.0603481	-0.206659	0.0222657	-0.451752	0	0	-0.207802	0.0559569	-0.0555261	0.922122	-0.148553	0.924518	0.868763	1.5708	0	0	0.770988	-0.337772	0.762568	0.967829	1.5708	0	0
6.84	2.87555	1.50201	-1.31458	0.640889	1.93084	1.04685	0.0328641	-0.0262713	-0.155264	0.478534	-0.153422	0	0	-0.198813	-0.060767	-0.207528	0.0218924	-0.451281	0	0	-0.207497	0.0555113	-0.0564156	0.919749	-0.148998	0.923159	0.873558	1.5708	0	0	0.766154	-0.341468	0.757685	0.975449	1.5708	0	0
6.85	2.86562	1.50279	-1.30534	0.641186	1.93173	1.0467	0.0323793	-0.0256315	-0.156129	0.477676	-0.150643	0	0	-0.198297	-0.0616472	-0.209898	0.0236728	-0.442078	0	0	-0.206705	0.056149	-0.0589654	0.920216	-0.148472	0.928074	0.877378	1.5708	0	0	0.758134	-0.346619	0.747169	0.986208	1.5708	0	0
6.86	2.85919	1.50311	-1.29929	0.641492	1.93255	1.04662	0.0313816	-0.0250733	-0.157521	0.476464	-0.151406	0	0	-0.199093	-0.0621698	-0.209927	0.0227308	-0.445329	0	0	-0.205719	0.0555253	-0.0596067	0.917231	-0.148405	0.924834	0.88081	1.5708	0	0	0.754317	-0.349882	0.744554	0.992373	1.5708	0	0
6.87	2.84558	1.50433	-1.28618	0.641743	1.93335	1.04646	0.0316368	-0.0242967	-0.158537	0.475463	-0.151955	0	0	-0.198657	-0.0628605	-0.210117	0.022335	-0.448133	0	0	-0.204864	0.0562164	-0.0639981	0.917264	-0.145053	0.926481	0.882829	1.5708	0	0	0.743658	-0.356042	0.72919	1.00572	1.5708	0	0
6.88	2.82842	1.50555	-1.26982	0.641953	1.93405	1.0463	0.032506	-0.0233573	-0.158603	0.475573	-0.151822	0	0	-0.198074	-0.0636696	-0.210721	0.0222154	-0.447228	0	0	-0.203419	0.0566977	-0.0660919	0.916648	-0.144025	0.927771	0.885706	1.5708	0	0	0.736927	-0.360599	0.721449	1.01494	1.5708	0	0
6.89	2.8108	1.50652	-1.25274	0.642164	1.93471	1.04619	0.0331313	-0.0223931	-0.158625	0.475487	-0.151784	0	0	-0.197366	-0.0646488	-0.211553	0.0226637	-0.446533	0	0	-0.201934	0.0568456	-0.0678326	0.915986	-0.143719	0.929526	0.888574	1.5708	0	0	0.73164	-0.364972	0.71668	1.02289	1.5708	0	0
6.9	2.7976	1.50704	-1.23976	0.642389	1.93533	1.04613	0.0330484	-0.0215564	-0.159105	0.475061	-0.151445	0	0	-0.196977	-0.0656183	-0.212454	0.0233884	-0.446039	0	0	-0.200573	0.0561369	-0.068789	0.9148	-0.144606	0.93091	0.89183	1.5708	0	0	0.727954	-0.36833	0.714227	1.02911	1.5708	0	0
6.91	2.78621	1.50767	-1.22849	0.642604	1.93593	1.04607	0.0329289	-0.0208591	-0.159781	0.47447	-0.151133	0	0	-0.196795	-0.0663387	-0.213031	0.0233873	-0.445889	0	0	-0.199117	0.0554816	-0.0699238	0.913689	-0.145495	0.932586	0.895165	1.5708	0	0	0.724364	-0.371871	0.712125	1.0354	1.5708	0	0
6.92	2.775	1.5083	-1.21764	0.642739	1.93647	1.046	0.0328667	-0.0203045	-0.160343	0.473839	-0.15087	0	0	-0.197044	-0.0667604	-0.213853	0.0223933	-0.445986	0	0	-0.197748	0.0553889	-0.071158	0.913011	-0.146207	0.934849	0.898683	1.5708	0	0	0.720395	-0.375583	0.709527	1.04197	1.5708	0	0
6.93	2.76421	1.50918	-1.20754	0.642811	1.93697	1.04591	0.0331911	-0.0199796	-0.160661	0.473252	-0.150748	0	0	-0.197011	-0.0668342	-0.215222	0.0214699	-0.446072	0	0	-0.196091	0.0551967	-0.0729616	0.913242	-0.146143	0.938688	0.901687	1.5708	0	0	0.715399	-0.379997	0.705457	1.04958	1.5708	0	0
6.94	2.75634	1.50993	-1.20027	0.64288	1.93745	1.04585	0.0333195	-0.0198037	-0.161199	0.472647	-0.150713	0	0	-0.196893	-0.0668081	-0.216338	0.0211322	-0.445994	0	0	-0.194419	0.0545896	-0.0746211	0.913086	-0.14605	0.941447	0.904619	1.5708	0	0	0.710371	-0.384084	0.701001	1.05699	1.5708	0	0
6.95	2.74534	1.51099	-1.18976	0.642949	1.93792	1.04575	0.0338223	-0.0196202	-0.161786	0.471842	-0.150628	0	0	-0.196564	-0.0668878	-0.216878	0.0203983	-0.445969	0	0	-0.193477	0.0535799	-0.077043	0.912615	-0.146138	0.942664	0.909877	1.5708	0	0	0.703367	-0.38952	0.692795	1.06899	1.5708	0	0
6.96	2.73293	1.51183	-1.17778	0.642985	1.93835	1.04565	0.034173	-0.0192548	-0.162366	0.471091	-0.150487	0	0	-0.19645	-0.0671153	-0.217009	0.0194952	-0.446014	0	0	-0.192493	0.0529547	-0.0786492	0.911932	-0.147044	0.943471	0.915277	1.5708	0	0	0.6975	-0.394423	0.686753	1.08022	1.5708	0	0
6.97	2.72142	1.51258	-1.16688	0.643038	1.93874	1.04554	0.0344412	-0.0188525	-0.162694	0.470356	-0.150293	0	0	-0.196404	-0.0672487	-0.217324	0.0185561	-0.446134	0	0	-0.191156	0.0525172	-0.0796996	0.911503	-0.148073	0.945068	0.920273	1.5708	0	0	0.692344	-0.399139	0.682571	1.09065	1.5708	0	0
6.98	2.71397	1.51299	-1.16003	0.643086	1.9391	1.04546	0.034372	-0.0186553	-0.163026	0.469743	-0.150157	0	0	-0.196769	-0.0673102	-0.217787	0.0176349	-0.446292	0	0	-0.189315	0.0518682	-0.0798275	0.910937	-0.149553	0.947287	0.924499	1.5708	0	0	0.688638	-0.402756	0.681191	1.09865	1.5708	0	0
6.99	2.70783	1.51343	-1.15464	0.643114	1.93945	1.04539	0.0344399	-0.0186039	-0.163193	0.469341	-0.150093	0	0	-0.19716	-0.0672431	-0.218411	0.016727	-0.446502	0	0	-0.18743	0.051223	-0.0800566	0.910702	-0.150814	0.950496	0.928579	1.5708	0	0	0.684699	-0.406317	0.679709	1.10672	1.5708	0	0
7	2.7039	1.51397	-1.15165	0.643116	1.93978	1.04531	0.0346172	-0.0187538	-0.163371	0.469056	-0.150024	0	0	-0.197512	-0.0670118	-0.219114	0.0157432	-0.44674	0	0	-0.185474	0.0503957	-0.080294	0.910708	-0.152142	0.954559	0.932658	1.5708	0	0	0.680609	-0.40981	0.678113	1.11454	1.5708	0	0
7.01	2.70198	1.51453	-1.1508	0.643102	1.9401	1.04523	0.0347867	-0.0190383	-0.163606	0.468763	-0.149805	0	0	-0.197852	-0.0666008	-0.219725	0.0148448	-0.446841	0	0	-0.183602	0.0494162	-0.0803694	0.910472	-0.153845	0.958318	0.937338	1.5708	0	0	0.676287	-0.413377	0.676073	1.12219	1.5708	0	0
7.02	2.69995	1.51508	-1.14993	0.643074	1.9404	1.04515	0.035165	-0.0193809	-0.163608	0.468739	-0.149585	0	0	-0.198215	-0.0660812	-0.219932	0.0141128	-0.446876	0	0	-0.182055	0.0481197	-0.0801185	0.909689	-0.156324	0.960834	0.943507	1.5708	0	0	0.671505	-0.416863	0.673035	1.1305	1.5708	0	0
7.03	2.6985	1.51551	-1.14971	0.643033	1.9407	1.04509	0.0354013	-0.0197127	-0.163516	0.468641	-0.149351	0	0	-0.198612	-0.0654887	-0.220304	0.013466	-0.446833	0	0	-0.180614	0.0467506	-0.0794283	0.907915	-0.15962	0.961687	0.951333	1.5708	0	0	0.666391	-0.419492	0.669718	1.13934	1.5708	0	0
7.04	2.6973	1.51578	-1.14981	0.642972	1.94101	1.04504	0.0354671	-0.0200265	-0.163343	0.468414	-0.149087	0	0	-0.199127	-0.0649318	-0.221072	0.0128058	-0.446727	0	0	-0.179378	0.0455735	-0.0783782	0.904986	-0.163782	0.960538	0.961104	1.5708	0	0	0.661141	-0.422598	0.667336	1.14834	1.5708	0	0
